<svg xmlns="http://www.w3.org/2000/svg" width="254.536" height="41.955" viewBox="0 0 254.536 41.955">
  <g id="arch-insurance-white" transform="translate(0 -0.737)">
    <path id="Path_214" data-name="Path 214" d="M157.115,12.384v.579a2.022,2.022,0,0,0-1.77.7,4.528,4.528,0,0,0-.494,2.487V28.6a4.481,4.481,0,0,0,.494,2.479,2.034,2.034,0,0,0,1.77.69v.578h-7.182V31.77a2.039,2.039,0,0,0,1.787-.683A4.616,4.616,0,0,0,152.2,28.6V16.149a4.727,4.727,0,0,0-.469-2.512,2.05,2.05,0,0,0-1.8-.673v-.579h7.182m5.718,7.284v2.467q2.161-2.467,4.458-2.467a3.994,3.994,0,0,1,2.978,1.218,4.4,4.4,0,0,1,1.192,3.213v5.572a2.4,2.4,0,0,0,.424,1.688,2.469,2.469,0,0,0,1.669.41v.578h-6.587v-.578a3.134,3.134,0,0,0,1.677-.316,1.4,1.4,0,0,0,.451-1.219v-6.46a2.769,2.769,0,0,0-.774-2.062,2.7,2.7,0,0,0-1.983-.767q-1.734,0-3.505,2.416V29.4a3.138,3.138,0,0,0,.4,1.953,2.363,2.363,0,0,0,1.664.418v.578h-6.5v-.578c.94,0,1.52-.151,1.735-.452a3.737,3.737,0,0,0,.324-1.921V22.43a1.976,1.976,0,0,0-.391-1.459,2.694,2.694,0,0,0-1.668-.35v-.58l3.846-.373h.6m20.32,0v3.794h-.7a3.7,3.7,0,0,0-1.021-2.272,2.821,2.821,0,0,0-2.059-.842,2.263,2.263,0,0,0-1.481.46,1.5,1.5,0,0,0-.562,1.225,1.9,1.9,0,0,0,.519,1.32,7.714,7.714,0,0,0,2.256,1.369,8.062,8.062,0,0,1,2.969,1.957,3.562,3.562,0,0,1,.724,2.247,3.62,3.62,0,0,1-1.158,2.68,3.781,3.781,0,0,1-2.74,1.132,5.727,5.727,0,0,1-2.16-.6,3.221,3.221,0,0,0-.971-.323.716.716,0,0,0-.544.238.987.987,0,0,0-.255.6h-.6v-4.2h.6a4.545,4.545,0,0,0,1.429,2.633,3.721,3.721,0,0,0,2.536.975,2.1,2.1,0,0,0,1.54-.614,2.046,2.046,0,0,0,.621-1.516,2.193,2.193,0,0,0-.572-1.509,7.827,7.827,0,0,0-2.478-1.476,8.009,8.009,0,0,1-2.823-1.757,2.986,2.986,0,0,1-.68-1.975,3.31,3.31,0,0,1,1.115-2.5,3.732,3.732,0,0,1,2.646-1.047,4.129,4.129,0,0,1,1.549.34,2.764,2.764,0,0,0,.969.238.783.783,0,0,0,.732-.578h.6m14.6,0h.579V30.03a1.736,1.736,0,0,0,.434,1.38,2.814,2.814,0,0,0,1.693.359v.578l-4.493.238V30.322H195.9a5.374,5.374,0,0,1-4.324,2.417,3.832,3.832,0,0,1-2.9-1.184,4.131,4.131,0,0,1-1.132-2.974V22.257a1.5,1.5,0,0,0-.476-1.3,3.132,3.132,0,0,0-1.719-.34v-.58l3.965-.373h.6v8.815a2.6,2.6,0,0,0,2.791,2.791,4.157,4.157,0,0,0,3.268-2.024V22.582q0-1.279-.391-1.6a3.886,3.886,0,0,0-2.009-.358v-.58l4.187-.373m8.289,0V22.34a24.052,24.052,0,0,1,2.645-2.077,3.172,3.172,0,0,1,1.575-.594,3.381,3.381,0,0,1,2.264.969l-.937,2.195a7.114,7.114,0,0,0-2.927-1.089,4.324,4.324,0,0,0-2.62,1.5v6.788a1.761,1.761,0,0,0,.424,1.381,2.662,2.662,0,0,0,1.634.359v.578h-6.517v-.578a2.456,2.456,0,0,0,1.693-.41,3.115,3.115,0,0,0,.4-1.963V22.653A2.24,2.24,0,0,0,203.244,21a3.746,3.746,0,0,0-2.119-.374v-.58l4.323-.373h.6m14.72,10.176V25.658q-.527.221-1.532.562a5.668,5.668,0,0,0-2.374,1.251,2.535,2.535,0,0,0-.519,1.677,2.421,2.421,0,0,0,.553,1.591,1.662,1.662,0,0,0,1.32.673,2.883,2.883,0,0,0,1.462-.451A2.664,2.664,0,0,0,220.764,29.845Zm-3.319,2.894a3.529,3.529,0,0,1-2.485-.961,3.053,3.053,0,0,1-1.038-2.323,2.812,2.812,0,0,1,.894-2.136,9.354,9.354,0,0,1,3.634-1.608,11.629,11.629,0,0,0,2.314-.816v-.919a3.1,3.1,0,0,0-.748-2.169,2.578,2.578,0,0,0-2.008-.826,3.132,3.132,0,0,0-2.025.715,3.767,3.767,0,0,0-1.242,1.941l-.63-.171a4.793,4.793,0,0,1,1.626-2.757,4.4,4.4,0,0,1,7.394,3.489v5.293a5.205,5.205,0,0,0,.146,1.524.545.545,0,0,0,.552.4.528.528,0,0,0,.443-.23,3.619,3.619,0,0,0,.391-.961h.6a2.911,2.911,0,0,1-.724,1.839,2.193,2.193,0,0,1-1.676.68,2.151,2.151,0,0,1-2.094-1.753,6.47,6.47,0,0,1-1.634,1.379,3.583,3.583,0,0,1-1.685.373ZM230.4,19.669v2.467q2.16-2.467,4.458-2.467a4,4,0,0,1,2.978,1.218,4.4,4.4,0,0,1,1.191,3.213v5.572a2.4,2.4,0,0,0,.426,1.688,2.465,2.465,0,0,0,1.668.41v.578h-6.587v-.578a3.14,3.14,0,0,0,1.678-.316,1.4,1.4,0,0,0,.451-1.219v-6.46a2.77,2.77,0,0,0-.775-2.062,2.7,2.7,0,0,0-1.983-.767q-1.737,0-3.506,2.416V29.4a3.13,3.13,0,0,0,.4,1.953,2.36,2.36,0,0,0,1.663.418v.578h-6.5v-.578q1.412,0,1.736-.452a3.739,3.739,0,0,0,.323-1.921V22.43a1.98,1.98,0,0,0-.391-1.459,2.694,2.694,0,0,0-1.668-.35v-.58l3.846-.373h.6m23.69,0v4.356h-.6a4.985,4.985,0,0,0-1.5-2.69,3.832,3.832,0,0,0-2.638-.987,3.9,3.9,0,0,0-2.995,1.429,4.219,4.219,0,0,0-1.157,3.71c.32,1.648.455,3.131,1.369,4.356a3.99,3.99,0,0,0,3.259,1.839A5.121,5.121,0,0,0,252.325,31a6.5,6.5,0,0,0,2.118-1.89v.9A6.41,6.41,0,0,1,249,32.737,6.027,6.027,0,0,1,244.531,31a6.12,6.12,0,0,1-1.728-4.51,6.816,6.816,0,0,1,1.863-4.833,5.945,5.945,0,0,1,4.5-1.99,8.451,8.451,0,0,1,2.62.476,3.475,3.475,0,0,0,.869.2c.351,0,.628-.227.833-.68h.6m4.629,4.559h6.722v-.238a3.6,3.6,0,0,0-.944-2.622,3.157,3.157,0,0,0-2.358-.969,3.067,3.067,0,0,0-2.408,1.021,4.464,4.464,0,0,0-1.012,2.807Zm9.276,4.954v.9a7.413,7.413,0,0,1-2.289,2.043,5.933,5.933,0,0,1-2.8.613,6.6,6.6,0,0,1-4.774-1.812,6.119,6.119,0,0,1-1.88-4.6,6.667,6.667,0,0,1,1.8-4.731,5.784,5.784,0,0,1,4.4-1.922,5.407,5.407,0,0,1,3.744,1.445,4.5,4.5,0,0,1,1.6,3.455v.255h-9.071V25a9.265,9.265,0,0,0,.621,3.547,5.287,5.287,0,0,0,1.812,2.358,4.215,4.215,0,0,0,2.485.851,4.026,4.026,0,0,0,2.067-.5,11.324,11.324,0,0,0,2.289-2.067Z" transform="translate(-13.455 -1.045)" fill="#fff" fill-rule="evenodd"/>
    <g id="Group_146" data-name="Group 146" transform="translate(0 22.496)">
      <path id="Path_215" data-name="Path 215" d="M17.418,4.531,0,9.576,6.645.785l-.1,4.071,10.878-.325M22.1,4.276,15.056,20.981l-2.651-10.7,3.1,2.648L22.1,4.274" transform="translate(0 -0.785)" fill="#fff" fill-rule="evenodd"/>
    </g>
    <path id="Path_216" data-name="Path 216" d="M24.04,22.515,32.515,38.54l-9.956-4.717,4.008-.725L24.04,22.515m-1.357-4.564L40.535,21.1,30.7,26.068l1.891-3.613-9.9-4.5m-3.243-1.136L33.318,5.136l-2.512,10.73L29.253,12.1l-9.813,4.71m-3.7,2.076L14.958.776l6.97,8.533L18,8.247,15.739,18.891m-.421,4.234L.54,12.622l11.02-.26L8.3,14.807l7.014,8.318M53.9,10.135h-.084L50.5,20.215h6.676L53.9,10.135Zm3.816,11.531H50.042l-1.618,4.769c-.788,2.321-1.2,4.106,1.287,4.147v.705H43.572v-.705c2.239-.331,2.778-1.534,3.524-3.732L53.65,7.274H56.1l6.884,20.447c.7,2.2,1.285,2.86,3.4,2.86v.705H58.006v-.705c1.618,0,2.4-.7,1.866-2.322l-2.156-6.594Zm15.505,6.843c0,1.617.5,2.073,2.447,2.073v.705H67.912v-.705c2.239,0,2.49-.58,2.49-2.819v-8c0-2.157-.539-2.407-3.028-2.407v-.7l5.143-.456h.7v3.193c2.737-2.365,4.023-3.193,5.019-3.193a4.586,4.586,0,0,1,2.694,1.161l-1.12,2.613a8.37,8.37,0,0,0-3.484-1.286c-.953,0-1.783.5-3.11,1.782v8.048m21.357-7.134h-.706c-.623-2.654-2.488-4.356-4.935-4.356-2.9,0-4.935,2.49-4.935,6.1,0,4.023,2.531,7.383,5.516,7.383a6.988,6.988,0,0,0,5.474-3.068v1.078a7.686,7.686,0,0,1-6.47,3.234A7.064,7.064,0,0,1,81.14,24.32a7.854,7.854,0,0,1,7.589-8.129c2.2,0,3.4.828,4.148.828a1.2,1.2,0,0,0,.995-.828h.706v5.184m16.833,6.387c0,2.239.415,2.819,2.364,2.819v.705h-7.631v-.705c1.99,0,2.446-.455,2.446-2.362V20.96a2.882,2.882,0,0,0-2.944-3.2c-1.658,0-2.861.79-4.273,2.781v8.046c0,1.534.623,1.99,2.449,1.99v.705H95.941v-.705c2.2-.041,2.613-.455,2.613-2.819V8.643c0-1.908-.54-2.2-2.612-2.2v-.7l4.728-.5h.7v13.9c1.866-2.157,3.236-2.944,5.143-2.944a4.749,4.749,0,0,1,4.894,5.1v6.47m13.261,14.531h.9V.737h-.9Z" transform="translate(-0.048)" fill="#fff" fill-rule="evenodd"/>
  </g>
</svg>
