<?xml version="1.0" encoding="utf-8"?>
<!-- Generator: Adobe Illustrator 27.8.1, SVG Export Plug-In . SVG Version: 6.00 Build 0)  -->
<svg version="1.1" xmlns="http://www.w3.org/2000/svg" xmlns:xlink="http://www.w3.org/1999/xlink" x="0px" y="0px"
	 viewBox="0 0 1920 900" style="enable-background:new 0 0 1920 900;" xml:space="preserve">
<style type="text/css">
	.st0{display:none;}
	.st1{display:inline;fill:url(#SVGID_1_);}
	.st2{display:inline;fill:#3E52A0;}
	.st3{fill:#2D4295;}
	.st4{display:inline;fill:#24378B;}
	.st5{display:inline;fill:#263066;}
	.st6{display:inline;fill:#1D1E35;}
	.st7{display:inline;fill:#1D1F42;}
	.st8{display:inline;opacity:0.15;fill:url(#SVGID_00000010270901234912310760000011105012486090768044_);}
	.st9{display:inline;opacity:0.5;fill:url(#SVGID_00000168839555064789209720000001583761954047530915_);}
	.st10{display:inline;fill:url(#SVGID_00000142140354332551480290000001262644695228557208_);}
	.st11{display:inline;fill:url(#SVGID_00000060007182199658297490000002475291100178391709_);}
	.st12{display:inline;fill:url(#SVGID_00000165206553375050952300000008328524490978178704_);}
	.st13{display:inline;fill:#2D4295;}
	.st14{display:inline;opacity:0.15;fill:url(#SVGID_00000052096971146670018910000009016695322671555758_);}
	.st15{display:inline;opacity:0.5;fill:url(#SVGID_00000011740483696048142900000011010798421919596709_);}
	.st16{display:inline;fill:url(#SVGID_00000021094534786809859110000017014748891400341890_);}
	.st17{display:inline;opacity:0.03;}
	.st18{fill:#FFFFFF;}
	.st19{display:inline;fill:url(#SVGID_00000160890534211043470060000000838895723059774645_);}
	.st20{display:inline;fill:url(#SVGID_00000027600155537537877720000014400888987123331498_);}
	.st21{display:inline;opacity:0.15;fill:url(#SVGID_00000130637695468914914050000000919691137040676543_);}
	.st22{display:inline;opacity:0.5;fill:url(#SVGID_00000018219750463500259800000006892252407111794098_);}
	.st23{display:inline;fill:url(#SVGID_00000125593993563267664490000017385769600846452363_);}
	.st24{display:inline;fill:url(#SVGID_00000092434778067160772440000012765534975301110193_);}
</style>
<g id="BG_sky" class="st0">
	
		<radialGradient id="SVGID_1_" cx="765.2537" cy="427" r="741.4062" gradientTransform="matrix(-1.2801 0 0 0.9 2199.5596 45)" gradientUnits="userSpaceOnUse">
		<stop  offset="0" style="stop-color:#F3A1B5"/>
		<stop  offset="1" style="stop-color:#625DA6"/>
	</radialGradient>
	<rect x="0" y="0" class="st1" width="1920.17" height="900"/>
</g>
<g id="Layer_3" class="st0">
	<path class="st2" d="M1445.71,935.73c-22.12,6.75-257.68-23.79-352.64-5.71c-60.77,11.57-370.93,82.89-374.91-13.32
		c-1.17-28.34,105.95-156.99,127.51-175.08c114.33-95.99,126.19-171.14,125.6-184.6c-1.24-28.46,50.72-79.21,49.48-100.62
		c-1.95-33.74,52.84-55.8,50.91-56.95c20.01-17.16,64.72-15.96,98.35-12.66c21.82,2.14,38.12,7.65,60.75,4.18
		c18.02-2.77,31.09-14.46,49.22-16.32c44.75-4.6,71.52,11.92,119.54,0.09c39.44-9.72,78.83-8.55,117.72-17.54
		c39.01-9.02,72.25-22.52,113.9-29.36c78.99-12.97,108.25,20.72,166.83,46.84c36.55,16.3,80.48,24.85,122.2,35.53v533.54
		c-0.74-0.16-1.45-0.32-2.2-0.47C1872.64,933.67,1477.04,926.17,1445.71,935.73z"/>
</g>
<g id="Layer_4">
	<path class="st3" d="M1917.97,503.54c-45.33-9.57-99.4-21.3-141.67-35.21c-22.44-7.38-28.01-17.23-45.89-25.31
		c-26.22-11.86-55.86-13.9-78.55-28.55c-22.24-14.37-13.23-22.5-53.14-23.4c-23.48-0.53-101.26,16.27-117.46,32.43
		c-14.18,14.14-82.81,42.02-105.11,37.37c-26.74-5.58-250.31-45.29-277.61-56.52c-9.22-3.79-18.11-9.37-26.89-14.62
		c-7.28-4.35-14.49-8.47-21.74-11.14c-18.06-6.66-39.58-6.57-55.91-15.08c-22.98-11.97-83.25-27.24-101.84-12.54
		c-6.03,4.77-26.27,0.38-34.52,3.77c-11.19,4.6-24.19-15.04-159-7.84c-130.83,6.98-183.48,8.93-214.04-5.02
		c-39.94-18.23-206.17-40.3-259.92-26.03c-15.62,4.15-29.94,17.76-46.35,23.31c-27.88,9.43-33.37,3.64-48.43,23.22
		c-12.99,16.88-0.28,21.12-28.71,32.85c-16.5,6.81-40.94,7.35-58.99,12.68c-4.94,1.46-9.35,2.96-13.3,4.51
		c-1.76,0.69-3.42,1.39-5.01,2.09c-34.65,15.43-28.48,34.99-41.89,58.6v48.77v48.77V950h1938.14V570.64v-48.77v-17.86
		C1919.43,503.85,1918.72,503.7,1917.97,503.54z"/>
</g>
<g id="Layer_5" class="st0">
	<path class="st4" d="M1920.17,573.59v-2.95c-8.56-1.5-17.27-3.66-26.34-6.76c-38.74-13.2-68.04-5.34-109.22-10.9
		c-37.94-5.12-58.49-16.8-99.38-13.87c-44.49,3.19-57.45-5.98-97.91-11.61c-41.36-5.75-76.99,5.57-119.18-5.77
		c-36.83-9.9-58.19-13.36-98.82-12.3c-42.91,1.13-65.61-13.39-104.44-18.17c-18.18-2.24-37.22,2.58-55.64,0.06
		c-14.88-2.04-25.52-8.85-39.7-11.14c-48.07-7.78-99.79,14.18-146.82-0.48c-34.09-10.63-42.79-19.11-84.49-11.18
		c-61.34,11.66-163.05,25.8-222.44-0.6c-33.69-14.97-36.06-30.53-84.5-27.09c-36.98,2.63-59.24,8.25-93.04-5.74
		c-54.08-22.38-119.11-25.22-182.8-16.82c-70.03,9.24-139.68,15.52-203.07,38.23c-43.52,15.59-66.04,24.7-119.54,21.46
		c-18.51-1.12-34.83-3.26-50.8-4.86c-19.76-1.98-38.97-3.13-61.09-0.51v42.71v9.71v71.09V950H579.4h180.39h335.99h308h516.38
		L1920.17,573.59L1920.17,573.59z"/>
</g>
<g id="Layer_6" class="st0">
	<path class="st5" d="M1890.46,681.96l-34.26-8.55c0,0-38.06-4.11-43.77-0.31c-5.71,3.81-102.77-28.55-161.76-57.91
		c-59-29.37-237.91-25.85-237.91-25.85c-10.16-2.75-19.58-1.86-28.99-0.02l-39.25-0.03c-9.96-7.31-19.01-20.23-31.2-24.07
		c-17.08-5.37-31.26-3.95-46.02-13.12c-14.5-9.01-31.4-24.91-48.99-29.95c-15.05-4.31-47.94,37.06-60.04,31.43
		c-13.13-6.11-26.26-19.04-38.37-26.85c-11.24-7.25-138.91,39.01-150.51,49.62c-11.36,10.39-34.63-2.87-48.47,0.52
		c-13.94,3.4-24.53-4.45-39.45-5.05c-14.73-0.59-79.53,4.25-97.06-0.34c-17.99-4.71-83.05-40.65-100.68-46.11
		c-17.47-5.42-35.32-23.18-53.73-26.55c-18.77-3.44-81.18,0.93-91.19-9.72c-10.87-11.57-53.9,0.87-62.07-11.42
		c-8.21-12.34-130.45,16.87-145.42,21.29c-14.78,4.36-39.89-25.71-57.9-21.58c-19.28,4.41-36.9,16.44-55.51,22.15
		c-18.57,5.7-34.25,21.42-53.88,24.69c-18.97,3.16-25.24,27.79-39.86,33.44c-14.67,5.67-89.58,27.42-110.45,31
		c-26.65,4.57-61.3-18.41-80.68-2.63c-2.96,2.41-7.33,5.98-12.09,10.07v0.04v21.1v19.11V950h1305.35h74.28h627.96V681.96H1890.46z"
		/>
</g>
<g id="Layer_7" class="st0">
	<path class="st6" d="M1124.65,983.79c-33.84-14.2-169.62-49.87-199.92-67.57c-23.8-13.9,214.47-149.88,194.27-160.5
		c96.65-31.67,158.95-87.35,170.83-94.94c26.96-17.25,46.29-40.9,82.35-58c19.2-9.1,36.2-9.53,52.65-7.09
		c27.72,4.1,53.88,16.32,86.29,8.85c26.63-6.14,52.12-0.95,79.37-4.22c28.18-3.38,25.34-8.54,38.6-15.58
		c2.46-1.31,5.48-2.68,9.36-4.12c25.3-9.37,51.84-6.58,78.43-2.22c8.79,1.44,17.58,3.05,26.33,4.45c15.17,2.43,30.23,4.22,44.97,3.4
		c52.75-2.95,75.13,11.09,124.4,18.21c2.51,0.36,5.04,0.68,7.59,0.96v50.57V950h-419.55
		C1466.05,887.38,1232.57,1029.09,1124.65,983.79z"/>
</g>
<g id="Layer_8" class="st0">
	<path class="st7" d="M102.88,607.51c70.41,6.86,139.36,51.11,211.24,53.51c73.71,2.46,140.94-35.92,213.97-39.49
		c75.25-3.68,141.07,37,215.2,42.95c74.95,6.02,165.13,48.08,239.91,53.71c61.13,4.6,98.59,17.94,135.8,37.51
		c20.2,10.62,40.33,23.09,64.12,36.99c30.3,17.7,166.09,53.37,199.92,67.57c107.92,45.3,83.01,27.11,117.57,89.73H-79.07V637.07
		v-0.72C-22.39,616.18,36.16,601.01,102.88,607.51z"/>
</g>
<g id="_x2014_ÎÓÈ_x5F_1" class="st0">
	
		<radialGradient id="SVGID_00000150818546463084646150000017348405730879189909_" cx="741" cy="351" r="120" gradientTransform="matrix(-1 0 0 1 1920 0)" gradientUnits="userSpaceOnUse">
		<stop  offset="0" style="stop-color:#000000"/>
		<stop  offset="0.73" style="stop-color:#984023"/>
		<stop  offset="1" style="stop-color:#000000"/>
	</radialGradient>
	
		<circle style="display:inline;opacity:0.15;fill:url(#SVGID_00000150818546463084646150000017348405730879189909_);" cx="1179" cy="351" r="120"/>
	
		<radialGradient id="SVGID_00000125589679647610385460000004261332201992015279_" cx="741" cy="351" r="60" gradientTransform="matrix(-1 0 0 1 1920 0)" gradientUnits="userSpaceOnUse">
		<stop  offset="0.15" style="stop-color:#FFFFFF"/>
		<stop  offset="0.2134" style="stop-color:#E0CBC9"/>
		<stop  offset="0.2931" style="stop-color:#C09593"/>
		<stop  offset="0.362" style="stop-color:#AA706F"/>
		<stop  offset="0.4166" style="stop-color:#9E5B5C"/>
		<stop  offset="0.45" style="stop-color:#995356"/>
		<stop  offset="0.5442" style="stop-color:#7E342F"/>
		<stop  offset="0.6472" style="stop-color:#5C1A0C"/>
		<stop  offset="0.7362" style="stop-color:#3F0800"/>
		<stop  offset="0.8068" style="stop-color:#1F0200"/>
		<stop  offset="0.85" style="stop-color:#000000"/>
		<stop  offset="0.856" style="stop-color:#120100"/>
		<stop  offset="0.8623" style="stop-color:#2F0200"/>
		<stop  offset="0.8686" style="stop-color:#430700"/>
		<stop  offset="0.875" style="stop-color:#5A1100"/>
		<stop  offset="0.8815" style="stop-color:#761D04"/>
		<stop  offset="0.888" style="stop-color:#952A10"/>
		<stop  offset="0.8945" style="stop-color:#B63B1D"/>
		<stop  offset="0.9" style="stop-color:#D34E29"/>
		<stop  offset="0.9063" style="stop-color:#BE4020"/>
		<stop  offset="0.916" style="stop-color:#A02F14"/>
		<stop  offset="0.9262" style="stop-color:#822209"/>
		<stop  offset="0.9367" style="stop-color:#681700"/>
		<stop  offset="0.9475" style="stop-color:#510D00"/>
		<stop  offset="0.9588" style="stop-color:#3D0500"/>
		<stop  offset="0.9707" style="stop-color:#290200"/>
		<stop  offset="0.9838" style="stop-color:#0E0100"/>
		<stop  offset="1" style="stop-color:#000000"/>
	</radialGradient>
	
		<circle style="display:inline;opacity:0.5;fill:url(#SVGID_00000125589679647610385460000004261332201992015279_);" cx="1179" cy="351" r="60"/>
	
		<radialGradient id="SVGID_00000154426312365217143460000016241957544321787054_" cx="741" cy="351" r="50" gradientTransform="matrix(-1.0177 0 0 0.8995 1933.9843 30.2481)" gradientUnits="userSpaceOnUse">
		<stop  offset="0.15" style="stop-color:#FFFFFF"/>
		<stop  offset="0.2824" style="stop-color:#A9A09D"/>
		<stop  offset="0.4253" style="stop-color:#655A55"/>
		<stop  offset="0.5636" style="stop-color:#382F2A"/>
		<stop  offset="0.6936" style="stop-color:#1C150E"/>
		<stop  offset="0.8134" style="stop-color:#090500"/>
		<stop  offset="0.9192" style="stop-color:#010100"/>
		<stop  offset="1" style="stop-color:#000000"/>
	</radialGradient>
	
		<ellipse style="display:inline;fill:url(#SVGID_00000154426312365217143460000016241957544321787054_);" cx="1179.88" cy="345.98" rx="50.88" ry="44.98"/>
	
		<radialGradient id="SVGID_00000083066128766849862780000007619507377681618832_" cx="754.3654" cy="337.6346" r="10.4549" gradientTransform="matrix(-1 0 0 1 1920 0)" gradientUnits="userSpaceOnUse">
		<stop  offset="0.1" style="stop-color:#07313E"/>
		<stop  offset="0.2105" style="stop-color:#082128"/>
		<stop  offset="0.335" style="stop-color:#061314"/>
		<stop  offset="0.4624" style="stop-color:#030803"/>
		<stop  offset="0.5913" style="stop-color:#020300"/>
		<stop  offset="0.7223" style="stop-color:#010100"/>
		<stop  offset="0.8568" style="stop-color:#000000"/>
		<stop  offset="1" style="stop-color:#000000"/>
	</radialGradient>
	<path style="display:inline;fill:url(#SVGID_00000083066128766849862780000007619507377681618832_);" d="M1176.09,337.63
		c0,5.77-4.68,10.45-10.45,10.45c-5.77,0-10.46-4.68-10.46-10.45c0-5.77,4.68-10.46,10.46-10.46
		C1171.41,327.18,1176.09,331.86,1176.09,337.63z"/>
</g>
<g id="Layer_9" class="st0">
	<g class="st17">
		<polygon class="st18" points="1091.6,780.21 1177.98,381.42 1177.46,584.2 1179.46,584.21 1179.97,381.92 1252.67,744.8 
			1254.63,744.4 1189.48,419.21 1227.31,574.42 1229.25,573.95 1181.29,377.14 1185.21,382.93 1185.57,382.68 1251.9,473.64 
			1253.52,472.46 1211.25,414.49 1319.47,551.78 1321.04,550.54 1250.23,460.71 1250.46,460.53 1194.06,389.36 1270.84,470.61 
			1272.29,469.23 1193.75,386.12 1274.19,456.08 1275.5,454.57 1254.2,436.04 1254.67,435.5 1189.88,379.97 1408.81,517.33 
			1409.88,515.64 1232.45,404.32 1313.66,451.72 1314.66,449.99 1211.22,389.62 1211.43,389.26 1185.84,374.71 1558.81,467.82 
			1559.29,465.88 1187.23,372.99 1376.68,373.55 1376.69,371.55 1187.67,370.99 1526.31,292.8 1525.86,290.85 1220.3,361.4 
			1367.62,320.02 1367.08,318.1 1183.63,369.63 1189.3,365.2 1189.02,364.85 1273.79,293.6 1272.51,292.06 1218.05,337.84 
			1346.58,221.05 1345.24,219.57 1261.6,295.57 1261.39,295.35 1195.12,355.89 1270.97,273.27 1269.5,271.91 1192.29,356.01 
			1257.44,269.66 1255.84,268.46 1238.64,291.25 1238.08,290.83 1186.65,360 1314.49,125.14 1312.73,124.19 1210.26,312.45 
			1253.37,227.31 1251.58,226.41 1195.37,337.42 1195.02,337.24 1181.7,364.24 1268.35,-35.85 1266.4,-36.27 1180.02,362.52 
			1180.54,159.73 1178.54,159.73 1178.03,362.01 1105.33,-0.86 1103.37,-0.47 1168.52,324.72 1130.69,169.51 1128.75,169.99 
			1176.71,366.8 1172.79,361.01 1172.43,361.25 1106.1,270.3 1104.48,271.48 1146.75,329.44 1038.53,192.15 1036.96,193.39 
			1107.77,283.22 1107.54,283.41 1163.94,354.57 1087.16,273.33 1085.71,274.7 1164.25,357.82 1083.81,287.86 1082.5,289.37 
			1103.8,307.89 1103.33,308.44 1168.12,363.96 949.19,226.6 948.12,228.3 1125.55,339.61 1044.34,292.22 1043.34,293.95 
			1146.78,354.32 1146.57,354.68 1172.16,369.23 799.19,276.12 798.71,278.06 1170.77,370.94 981.32,370.39 981.31,372.39 
			1170.33,372.94 831.69,451.13 832.14,453.08 1137.7,382.53 990.38,423.91 990.92,425.84 1174.37,374.31 1168.7,378.73 
			1168.98,379.09 1084.21,450.34 1085.49,451.87 1139.96,406.09 1011.42,522.88 1012.76,524.36 1096.4,448.37 1096.61,448.59 
			1162.88,388.05 1087.03,470.67 1088.5,472.02 1165.71,387.92 1100.56,474.27 1102.16,475.47 1119.36,452.68 1119.92,453.1 
			1171.35,383.94 1043.51,618.79 1045.27,619.75 1147.74,431.49 1104.63,516.62 1106.42,517.53 1162.63,406.52 1162.98,406.69 
			1176.3,379.69 1089.65,779.78 		"/>
	</g>
</g>
</svg>
