<?xml version="1.0" encoding="utf-8"?>
<!-- Generator: Adobe Illustrator 27.8.1, SVG Export Plug-In . SVG Version: 6.00 Build 0)  -->
<svg version="1.1" id="Layer_1" xmlns="http://www.w3.org/2000/svg" xmlns:xlink="http://www.w3.org/1999/xlink" x="0px" y="0px"
	 viewBox="0 0 1920 900" style="enable-background:new 0 0 1920 900;" xml:space="preserve">
<style type="text/css">
	.st0{fill:url(#SVGID_1_);}
	.st1{display:none;}
	.st2{display:inline;fill:#3E52A0;}
	.st3{display:inline;fill:#2D4295;}
	.st4{display:inline;fill:#24378B;}
	.st5{display:inline;fill:#263066;}
	.st6{display:inline;fill:#1D1E35;}
	.st7{display:inline;fill:#1D1F42;}
	
		.st8{display:inline;opacity:0.15;fill:url(#SVGID_00000026862719455545907470000009051206790017812154_);enable-background:new    ;}
	
		.st9{display:inline;opacity:0.5;fill:url(#SVGID_00000009548447117614372230000014151460129823715458_);enable-background:new    ;}
	.st10{display:inline;fill:url(#SVGID_00000174570039053816006250000004511823437238688409_);}
	.st11{display:inline;fill:url(#SVGID_00000129173137061063625250000006769724901674400445_);}
	.st12{display:inline;opacity:3.000000e-02;}
	.st13{fill:#FFFFFF;}
</style>
<g id="BG_sky">
	
		<radialGradient id="SVGID_1_" cx="2048.3303" cy="-81.5132" r="741.4062" gradientTransform="matrix(-1.2801 0 0 -0.9 3690.7449 860.4)" gradientUnits="userSpaceOnUse">
		<stop  offset="1.559237e-02" style="stop-color:#49374D"/>
		<stop  offset="0.9997" style="stop-color:#3B3669"/>
	</radialGradient>
	<rect class="st0" width="1920.2" height="900"/>
</g>
<g id="Layer_3" class="st1">
	<path class="st2" d="M1445.7,935.7c-22.1,6.8-257.7-23.8-352.6-5.7c-60.8,11.6-370.9,82.9-374.9-13.3
		c-1.2-28.3,106-157,127.5-175.1C960,645.6,971.9,570.5,971.3,557c-1.2-28.5,50.7-79.2,49.5-100.6c-2-33.7,52.8-55.8,50.9-57
		c20-17.2,64.7-16,98.3-12.7c21.8,2.1,38.1,7.6,60.8,4.2c18-2.8,31.1-14.5,49.2-16.3c44.8-4.6,71.5,11.9,119.5,0.1
		c39.4-9.7,78.8-8.5,117.7-17.5c39-9,72.2-22.5,113.9-29.4c79-13,108.2,20.7,166.8,46.8c36.6,16.3,80.5,24.9,122.2,35.5v533.5
		c-0.7-0.2-1.4-0.3-2.2-0.5C1872.6,933.7,1477,926.2,1445.7,935.7z"/>
</g>
<g id="Layer_4" class="st1">
	<path class="st3" d="M1918,503.5c-45.3-9.6-99.4-21.3-141.7-35.2c-22.4-7.4-28-17.2-45.9-25.3c-26.2-11.9-55.9-13.9-78.6-28.5
		c-22.2-14.4-13.2-22.5-53.1-23.4c-23.5-0.5-101.3,16.3-117.5,32.4c-14.2,14.1-82.8,42-105.1,37.4c-26.7-5.6-250.3-45.3-277.6-56.5
		c-9.2-3.8-18.1-9.4-26.9-14.6c-7.3-4.4-14.5-8.5-21.7-11.1c-18.1-6.7-39.6-6.6-55.9-15.1c-23-12-83.2-27.2-101.8-12.5
		c-6,4.8-26.3,0.4-34.5,3.8c-11.2,4.6-24.2-15-159-7.8c-130.8,7-183.5,8.9-214-5c-39.9-18.2-206.2-40.3-259.9-26
		c-15.6,4.1-29.9,17.8-46.4,23.3c-27.9,9.4-33.4,3.6-48.4,23.2c-13,16.9-0.3,21.1-28.7,32.9c-16.5,6.8-40.9,7.4-59,12.7
		c-4.9,1.5-9.4,3-13.3,4.5c-1.8,0.7-3.4,1.4-5,2.1c-34.7,15.4-28.5,35-41.9,58.6v48.8v48.8V950h1938.1V570.6v-48.8V504
		C1919.4,503.9,1918.7,503.7,1918,503.5z"/>
</g>
<g id="Layer_5" class="st1">
	<path class="st4" d="M-18,473.1c16,1.6,32.3,3.7,50.8,4.9c53.5,3.2,76-5.9,119.5-21.5c63.4-22.7,133-29,203.1-38.2
		c63.7-8.4,128.7-5.6,182.8,16.8c33.8,14,56.1,8.4,93,5.7c48.4-3.5,50.8,12.1,84.5,27.1c59.4,26.4,161.1,12.3,222.4,0.6
		c41.7-7.9,50.4,0.5,84.5,11.2c47,14.7,98.8-7.3,146.8,0.5c14.2,2.3,24.8,9.1,39.7,11.1c18.4,2.5,37.5-2.3,55.6-0.1
		c38.8,4.8,61.5,19.3,104.4,18.2c40.6-1.1,62,2.4,98.8,12.3c42.2,11.3,77.8,0,119.2,5.8c40.5,5.6,53.4,14.8,97.9,11.6
		c40.9-2.9,61.4,8.7,99.4,13.9c41.2,5.6,70.5-2.3,109.2,10.9c9.1,3.1,17.8,5.3,26.3,6.8v34.8c-2.6-0.3-5.1-0.6-7.6-1
		c-49.3-7.1-71.7-21.2-124.4-18.2c-14.7,0.8-29.8-1-45-3.4c-8.8-1.4-17.6-3-26.3-4.5c-26.6-4.4-53.1-7.2-78.4,2.2
		c-3.9,1.4-6.9,2.8-9.4,4.1c-13.3,7-10.4,12.2-38.6,15.6c-27.2,3.3-52.7-1.9-79.4,4.2c-32.4,7.5-58.6-4.8-86.3-8.8
		c-3.6-2.8-7.5-5.1-12.1-6.3c-18.4-5-34.3,1.9-52.1,4.9c-17.8,3-29-23.2-47.3-29c-17.1-5.4-31.3-4-46-13.1c-14.5-9-31.4-24.9-49-30
		c-15.1-4.3-47.9,37.1-60,31.4c-13.1-6.1-26.3-19-38.4-26.8c-11.2-7.2-138.9,39-150.5,49.6c-11.4,10.4-34.6-2.9-48.5,0.5
		c-13.9,3.4-24.5-4.5-39.5-5c-14.7-0.6-79.5,4.2-97.1-0.3c-18-4.7-83-40.7-100.7-46.1c-17.5-5.4-35.3-23.2-53.7-26.5
		c-18.8-3.4-81.2,0.9-91.2-9.7c-10.9-11.6-53.9,0.9-62.1-11.4c-8.2-12.3-130.5,16.9-145.4,21.3c-14.8,4.4-39.9-25.7-57.9-21.6
		c-19.3,4.4-36.9,16.4-55.5,22.1c-18.6,5.7-34.2,21.4-53.9,24.7c-19,3.2-25.2,27.8-39.9,33.4c-14.7,5.7-89.6,27.4-110.4,31
		c-26.6,4.6-61.3-18.4-80.7-2.6c-3,2.4-7.3,6-12.1,10.1V525v-9.7v-42.7C-56.9,470-37.7,471.1-18,473.1z"/>
</g>
<g id="Layer_6" class="st1">
	<path class="st5" d="M13.7,588.7c20.9-3.6,95.8-25.3,110.4-31c14.6-5.7,20.9-30.3,39.9-33.4c19.6-3.3,35.3-19,53.9-24.7
		c18.6-5.7,36.2-17.7,55.5-22.1c18-4.1,43.1,25.9,57.9,21.6c15-4.4,137.2-33.6,145.4-21.3c8.2,12.3,51.2-0.1,62.1,11.4
		c10,10.6,72.4,6.3,91.2,9.7c18.4,3.4,36.3,21.1,53.7,26.6c17.6,5.5,82.7,41.4,100.7,46.1c17.5,4.6,82.3-0.2,97.1,0.3
		c14.9,0.6,25.5,8.5,39.5,5c13.8-3.4,37.1,9.9,48.5-0.5c11.6-10.6,139.3-56.9,150.5-49.6c12.1,7.8,25.2,20.7,38.4,26.8
		c12.1,5.6,45-35.7,60-31.4c17.6,5,34.5,20.9,49,30c14.8,9.2,28.9,7.8,46,13.1c18.3,5.8,29.5,32,47.3,29c17.8-3,33.8-9.8,52.1-4.9
		c4.6,1.2,8.5,3.5,12.1,6.3c-16.4-2.4-33.5-2-52.7,7.1c-36.1,17.1-55.4,40.8-82.3,58c-11.9,7.6-74.2,63.3-170.8,94.9
		c-37.2-19.6-74.7-32.9-135.8-37.5c-74.8-5.6-165-47.7-239.9-53.7c-74.1-6-140-46.6-215.2-43c-73,3.6-140.3,42-214,39.5
		c-71.9-2.4-140.8-46.7-211.2-53.5c-66.7-6.5-125.3,8.7-181.9,28.8v-19.1v-21.2c4.8-4.1,9.1-7.7,12.1-10.1
		C-47.6,570.3-12.9,593.2,13.7,588.7z"/>
</g>
<g id="Layer_7" class="st1">
	<path class="st6" d="M1383,860.3c-33.8-14.2-169.6-49.9-199.9-67.6c-23.8-13.9-43.9-26.4-64.1-37c96.7-31.7,158.9-87.3,170.8-94.9
		c27-17.2,46.3-40.9,82.3-58c19.2-9.1,36.2-9.5,52.7-7.1c27.7,4.1,53.9,16.3,86.3,8.8c26.6-6.1,52.1-1,79.4-4.2
		c28.2-3.4,25.3-8.5,38.6-15.6c2.5-1.3,5.5-2.7,9.4-4.1c25.3-9.4,51.8-6.6,78.4-2.2c8.8,1.4,17.6,3,26.3,4.5
		c15.2,2.4,30.2,4.2,45,3.4c52.8-3,75.1,11.1,124.4,18.2c2.5,0.4,5,0.7,7.6,1V656v294h-419.6C1466.1,887.4,1491,905.6,1383,860.3z"
		/>
</g>
<g id="Layer_8" class="st1">
	<path class="st7" d="M102.9,607.5c70.4,6.9,139.4,51.1,211.2,53.5c73.7,2.5,140.9-35.9,214-39.5c75.2-3.7,141.1,37,215.2,43
		c75,6,165.1,48.1,239.9,53.7c61.1,4.6,98.6,17.9,135.8,37.5c20.2,10.6,40.3,23.1,64.1,37c30.3,17.7,166.1,53.4,199.9,67.6
		c107.9,45.3,83,27.1,117.6,89.7H-79.1V637.1v-0.7C-22.4,616.2,36.2,601,102.9,607.5z"/>
</g>
<g id="_x2014_ÎÓÈ_x5F_1" class="st1">
	
		<radialGradient id="SVGID_00000134222266870899735950000014978332535145149316_" cx="2049" cy="549" r="120" gradientTransform="matrix(-1 0 0 -1 3228 900)" gradientUnits="userSpaceOnUse">
		<stop  offset="0" style="stop-color:#000000"/>
		<stop  offset="0.73" style="stop-color:#984023"/>
		<stop  offset="1" style="stop-color:#000000"/>
	</radialGradient>
	
		<circle style="display:inline;opacity:0.15;fill:url(#SVGID_00000134222266870899735950000014978332535145149316_);enable-background:new    ;" cx="1179" cy="351" r="120"/>
	
		<radialGradient id="SVGID_00000102538362005701890190000011582475489123751593_" cx="2049" cy="549" r="60" gradientTransform="matrix(-1 0 0 -1 3228 900)" gradientUnits="userSpaceOnUse">
		<stop  offset="0.15" style="stop-color:#FFFFFF"/>
		<stop  offset="0.2134" style="stop-color:#E0CBC9"/>
		<stop  offset="0.2931" style="stop-color:#C09593"/>
		<stop  offset="0.362" style="stop-color:#AA706F"/>
		<stop  offset="0.4166" style="stop-color:#9E5B5C"/>
		<stop  offset="0.45" style="stop-color:#995356"/>
		<stop  offset="0.5442" style="stop-color:#7E342F"/>
		<stop  offset="0.6472" style="stop-color:#5C1A0C"/>
		<stop  offset="0.7362" style="stop-color:#3F0800"/>
		<stop  offset="0.8068" style="stop-color:#1F0200"/>
		<stop  offset="0.85" style="stop-color:#000000"/>
		<stop  offset="0.856" style="stop-color:#120100"/>
		<stop  offset="0.8623" style="stop-color:#2F0200"/>
		<stop  offset="0.8686" style="stop-color:#430700"/>
		<stop  offset="0.875" style="stop-color:#5A1100"/>
		<stop  offset="0.8815" style="stop-color:#761D04"/>
		<stop  offset="0.888" style="stop-color:#952A10"/>
		<stop  offset="0.8945" style="stop-color:#B63B1D"/>
		<stop  offset="0.9" style="stop-color:#D34E29"/>
		<stop  offset="0.9063" style="stop-color:#BE4020"/>
		<stop  offset="0.916" style="stop-color:#A02F14"/>
		<stop  offset="0.9262" style="stop-color:#822209"/>
		<stop  offset="0.9367" style="stop-color:#681700"/>
		<stop  offset="0.9475" style="stop-color:#510D00"/>
		<stop  offset="0.9588" style="stop-color:#3D0500"/>
		<stop  offset="0.9707" style="stop-color:#290200"/>
		<stop  offset="0.9838" style="stop-color:#0E0100"/>
		<stop  offset="1" style="stop-color:#000000"/>
	</radialGradient>
	
		<circle style="display:inline;opacity:0.5;fill:url(#SVGID_00000102538362005701890190000011582475489123751593_);enable-background:new    ;" cx="1179" cy="351" r="60"/>
	
		<radialGradient id="SVGID_00000067213623218535642560000018348087626048655002_" cx="2037.6144" cy="555.0251" r="50.0003" gradientTransform="matrix(-1.0177 0 0 -0.8995 3253.5601 845.2251)" gradientUnits="userSpaceOnUse">
		<stop  offset="0.15" style="stop-color:#FFFFFF"/>
		<stop  offset="0.2824" style="stop-color:#A9A09D"/>
		<stop  offset="0.4253" style="stop-color:#655A55"/>
		<stop  offset="0.5636" style="stop-color:#382F2A"/>
		<stop  offset="0.6936" style="stop-color:#1C150E"/>
		<stop  offset="0.8134" style="stop-color:#090500"/>
		<stop  offset="0.9192" style="stop-color:#010100"/>
		<stop  offset="1" style="stop-color:#000000"/>
	</radialGradient>
	
		<ellipse style="display:inline;fill:url(#SVGID_00000067213623218535642560000018348087626048655002_);" cx="1179.9" cy="346" rx="50.9" ry="45"/>
	
		<radialGradient id="SVGID_00000083070621573072327900000005315522195623473332_" cx="2062.365" cy="562.375" r="10.455" gradientTransform="matrix(-1 0 0 -1 3228 900)" gradientUnits="userSpaceOnUse">
		<stop  offset="0.1" style="stop-color:#07313E"/>
		<stop  offset="0.2105" style="stop-color:#082128"/>
		<stop  offset="0.335" style="stop-color:#061314"/>
		<stop  offset="0.4624" style="stop-color:#030803"/>
		<stop  offset="0.5913" style="stop-color:#020300"/>
		<stop  offset="0.7223" style="stop-color:#010100"/>
		<stop  offset="0.8568" style="stop-color:#000000"/>
		<stop  offset="1" style="stop-color:#000000"/>
	</radialGradient>
	<path style="display:inline;fill:url(#SVGID_00000083070621573072327900000005315522195623473332_);" d="M1176.1,337.6
		c0,5.8-4.7,10.5-10.4,10.5c-5.8,0-10.5-4.7-10.5-10.5c0-5.8,4.7-10.5,10.5-10.5C1171.4,327.2,1176.1,331.9,1176.1,337.6z"/>
</g>
<g id="Layer_9" class="st1">
	<g class="st12">
		<polygon class="st13" points="1091.6,780.2 1178,381.4 1177.5,584.2 1179.5,584.2 1180,381.9 1252.7,744.8 1254.6,744.4 
			1189.5,419.2 1227.3,574.4 1229.2,574 1181.3,377.1 1185.2,382.9 1185.6,382.7 1251.9,473.6 1253.5,472.5 1211.2,414.5 
			1319.5,551.8 1321,550.5 1250.2,460.7 1250.5,460.5 1194.1,389.4 1270.8,470.6 1272.3,469.2 1193.8,386.1 1274.2,456.1 
			1275.5,454.6 1254.2,436 1254.7,435.5 1189.9,380 1408.8,517.3 1409.9,515.6 1232.4,404.3 1313.7,451.7 1314.7,450 1211.2,389.6 
			1211.4,389.3 1185.8,374.7 1558.8,467.8 1559.3,465.9 1187.2,373 1376.7,373.5 1376.7,371.5 1187.7,371 1526.3,292.8 
			1525.9,290.9 1220.3,361.4 1367.6,320 1367.1,318.1 1183.6,369.6 1189.3,365.2 1189,364.9 1273.8,293.6 1272.5,292.1 
			1218.1,337.8 1346.6,221.1 1345.2,219.6 1261.6,295.6 1261.4,295.4 1195.1,355.9 1271,273.3 1269.5,271.9 1192.3,356 
			1257.4,269.7 1255.8,268.5 1238.6,291.2 1238.1,290.8 1186.7,360 1314.5,125.1 1312.7,124.2 1210.3,312.5 1253.4,227.3 
			1251.6,226.4 1195.4,337.4 1195,337.2 1181.7,364.2 1268.3,-35.8 1266.4,-36.3 1180,362.5 1180.5,159.7 1178.5,159.7 1178,362 
			1105.3,-0.9 1103.4,-0.5 1168.5,324.7 1130.7,169.5 1128.8,170 1176.7,366.8 1172.8,361 1172.4,361.2 1106.1,270.3 1104.5,271.5 
			1146.8,329.4 1038.5,192.1 1037,193.4 1107.8,283.2 1107.5,283.4 1163.9,354.6 1087.2,273.3 1085.7,274.7 1164.2,357.8 
			1083.8,287.9 1082.5,289.4 1103.8,307.9 1103.3,308.4 1168.1,364 949.2,226.6 948.1,228.3 1125.6,339.6 1044.3,292.2 1043.3,294 
			1146.8,354.3 1146.6,354.7 1172.2,369.2 799.2,276.1 798.7,278.1 1170.8,370.9 981.3,370.4 981.3,372.4 1170.3,372.9 831.7,451.1 
			832.1,453.1 1137.7,382.5 990.4,423.9 990.9,425.8 1174.4,374.3 1168.7,378.7 1169,379.1 1084.2,450.3 1085.5,451.9 1140,406.1 
			1011.4,522.9 1012.8,524.4 1096.4,448.4 1096.6,448.6 1162.9,388 1087,470.7 1088.5,472 1165.7,387.9 1100.6,474.3 1102.2,475.5 
			1119.4,452.7 1119.9,453.1 1171.3,383.9 1043.5,618.8 1045.3,619.8 1147.7,431.5 1104.6,516.6 1106.4,517.5 1162.6,406.5 
			1163,406.7 1176.3,379.7 1089.7,779.8 		"/>
	</g>
</g>
</svg>
